<svg xmlns="http://www.w3.org/2000/svg" xmlns:xlink="http://www.w3.org/1999/xlink" xmlns:lucid="lucid" width="1752" height="656"><g transform="translate(-80 -180)" lucid:page-tab-id="0_0"><path d="M861 576.02h399v.2h179" stroke="#000" stroke-width="2" fill="none"/><path fill="#fff"/><path d="M882 586.02h-2v-20h2zM1439 567.1l-18.2 9.1 18.2 9.12-.9 1.8-21.78-10.9 21.8-10.9z"/><path fill="#fff"/><path d="M1419.55 586.2h-2v-20h2z"/><path d="M861 256h49v144.3h49" stroke="#000" stroke-width="2" fill="none"/><path fill="#fff"/><path d="M882 266h-2v-20h2zM959 391.2l-18.2 9.1 18.2 9.1-.9 1.8-21.78-10.9 21.8-10.9z"/><path d="M938.55 400.3l-.5 3.17-1.43 2.74-2.16 2.18-2.75 1.42-3.15.5-3.16-.5-2.75-1.42-2.17-2.17-1.42-2.73-.5-3.16.5-3.15 1.42-2.75 2.17-2.16 2.74-1.42 3.15-.5 3.16.5 2.76 1.42 2.16 2.16 1.42 2.75.5 3.16z" fill="#fff"/><path d="M932.03 389.85l3.03 1.57 2.38 2.38 1.56 3.03.54 3.32-1 .16 1 .17-.54 3.3-1.56 3.04-2.38 2.4-3.03 1.56-3.48.56-3.48-.56-3.02-1.57-2.38-2.4-1.57-3.02-.56-3.47.56-3.47 1.57-3.03 2.38-2.38 3.02-1.57 3.48-.56zm-6.32 1.93l-2.46 1.27-1.94 1.95-1.28 2.46-.45 2.85.45 2.85 1.28 2.46 1.94 1.96 2.47 1.27 2.85.46 2.85-.47 2.46-1.27 1.95-1.95 1.28-2.45.46-2.84-.46-2.84-1.27-2.46-1.94-1.95-2.46-1.27-2.85-.46z"/><path d="M861 576.02h499v224.3h79" stroke="#000" stroke-width="2" fill="none"/><path fill="#fff"/><path d="M882 586.02h-2v-20h2zM1439 791.2l-18.2 9.1 18.2 9.1-.9 1.8-21.78-10.9 21.8-10.9z"/><path d="M1418.55 800.3l-.5 3.17-1.43 2.74-2.16 2.18-2.75 1.42-3.15.5-3.16-.5-2.75-1.42-2.17-2.17-1.42-2.73-.5-3.16.5-3.15 1.42-2.75 2.17-2.16 2.74-1.42 3.15-.5 3.16.5 2.76 1.42 2.16 2.16 1.42 2.75.5 3.16z" fill="#fff"/><path d="M1412.03 789.85l3.03 1.57 2.38 2.38 1.56 3.03.54 3.32-1 .16 1 .17-.54 3.3-1.56 3.04-2.38 2.4-3.03 1.56-3.48.56-3.48-.56-3.02-1.57-2.38-2.4-1.57-3.02-.56-3.47.56-3.47 1.57-3.03 2.38-2.38 3.02-1.57 3.48-.56zm-6.32 1.93l-2.46 1.27-1.94 1.95-1.28 2.46-.45 2.85.45 2.85 1.28 2.46 1.94 1.96 2.47 1.27 2.85.46 2.85-.47 2.46-1.27 1.95-1.95 1.28-2.45.46-2.84-.46-2.84-1.27-2.46-1.94-1.95-2.46-1.27-2.85-.46z"/><path d="M1781 511.84h40v256.28h-40" stroke="#000" stroke-width="2" fill="none"/><path fill="#fff"/><path d="M1802 521.84h-2v-20h2z"/><path fill="#fff"/><path d="M1802 778.12h-2v-20h2z"/><path d="M519 256h-59v64h-59" stroke="#000" stroke-width="2" fill="none"/><path fill="#fff"/><path d="M500 266h-2v-20h2zM423.68 320l-21.8 10.9-.88-1.8 18.2-9.1-18.2-9.1.9-1.8z"/><path d="M441.45 320l-.5 3.16-1.43 2.75-2.17 2.17-2.74 1.42-3.15.5-3.16-.5-2.76-1.43-2.16-2.16-1.42-2.74-.5-3.16.5-3.16 1.42-2.75 2.16-2.17 2.75-1.42 3.15-.5 3.16.5 2.75 1.43 2.17 2.16 1.42 2.74.5 3.16z" fill="#fff"/><path d="M434.93 309.55l3.02 1.56 2.38 2.4 1.57 3.02.53 3.32-.98.16.98.16-.53 3.32-1.57 3.02-2.38 2.4-3.02 1.55-3.48.56-3.48-.55-3.03-1.56-2.38-2.4-1.56-3.02-.57-3.48.57-3.48 1.56-3.02 2.38-2.4 3.03-1.55 3.48-.56zm-6.33 1.92l-2.46 1.28-1.95 1.94-1.28 2.46-.46 2.84.46 2.84 1.27 2.47 1.94 1.95 2.46 1.28 2.85.46 2.84-.47 2.46-1.28 1.94-1.94 1.28-2.46.45-2.84-.45-2.84-1.28-2.47-1.94-1.95-2.47-1.28-2.85-.46z"/><path d="M1301 335.93h59v208.1h79" stroke="#000" stroke-width="2" fill="none"/><path fill="#fff"/><path d="M1322 345.93h-2v-20h2zM1439 534.92l-18.2 9.1 18.2 9.1-.9 1.8-21.78-10.9 21.8-10.9z"/><path d="M1418.55 544.02l-.5 3.16-1.43 2.75-2.16 2.16-2.75 1.4-3.15.52-3.16-.5-2.75-1.43-2.17-2.17-1.42-2.75-.5-3.16.5-3.16 1.42-2.74 2.17-2.17 2.74-1.42 3.15-.5 3.16.5 2.76 1.42 2.16 2.17 1.42 2.74.5 3.16z" fill="#fff"/><path d="M1412.03 533.57l3.03 1.57 2.38 2.38 1.56 3.03.54 3.3-1 .17 1 .16-.54 3.32-1.56 3.03-2.38 2.38-3.03 1.58-3.48.56-3.48-.56-3.02-1.57-2.38-2.37-1.57-3.03-.56-3.48.56-3.47 1.57-3.03 2.38-2.38 3.02-1.57 3.48-.56zm-6.32 1.93l-2.46 1.27-1.94 1.94-1.28 2.48-.45 2.84.45 2.85 1.28 2.46 1.94 1.95 2.47 1.27 2.85.46 2.85-.45 2.46-1.27 1.95-1.95 1.28-2.46.46-2.85-.46-2.84-1.27-2.47-1.94-1.93-2.46-1.27-2.85-.46z"/><path d="M100 200h300v136H100z" fill="#fff"/><path d="M100 272h300v32H100z" fill="#e6e6e6"/><path d="M100 200h300v40H100z" fill="#ccc"/><path d="M100 200h300v136H100zM100 240h300M160 240v96M280 240v96" stroke="#000" stroke-width="2" fill="none"/><use xlink:href="#a" transform="matrix(1,0,0,1,110,200) translate(108.5 23.6)"/><use xlink:href="#b" transform="matrix(1,0,0,1,105,242.5) translate(13 17.1)"/><use xlink:href="#c" transform="matrix(1,0,0,1,165,242.5) translate(0 17.1)"/><use xlink:href="#d" transform="matrix(1,0,0,1,285,242.5) translate(0 17.1)"/><use xlink:href="#e" transform="matrix(1,0,0,1,165,274.5) translate(0 17.1)"/><use xlink:href="#f" transform="matrix(1,0,0,1,285,274.5) translate(0 17.1)"/><use xlink:href="#g" transform="matrix(1,0,0,1,105,306.5) translate(13.524999999999999 17.1)"/><use xlink:href="#h" transform="matrix(1,0,0,1,165,306.5) translate(0 17.1)"/><use xlink:href="#d" transform="matrix(1,0,0,1,285,306.5) translate(0 17.1)"/><path d="M520 200h340v200H520z" fill="#fff"/><path d="M520 272h340v32H520zM520 336h340v32H520z" fill="#e6e6e6"/><path d="M520 200h340v40H520z" fill="#ccc"/><path d="M520 200h340v200H520zM520 240h340M580 240v160M720 240v160" stroke="#000" stroke-width="2" fill="none"/><use xlink:href="#i" transform="matrix(1,0,0,1,530,200) translate(134.075 23.6)"/><use xlink:href="#b" transform="matrix(1,0,0,1,525,242.5) translate(13 17.1)"/><use xlink:href="#c" transform="matrix(1,0,0,1,585,242.5) translate(0 17.1)"/><use xlink:href="#d" transform="matrix(1,0,0,1,725,242.5) translate(0 17.1)"/><use xlink:href="#j" transform="matrix(1,0,0,1,585,274.5) translate(0 17.1)"/><use xlink:href="#k" transform="matrix(1,0,0,1,725,274.5) translate(0 17.1)"/><use xlink:href="#l" transform="matrix(1,0,0,1,585,306.5) translate(0 17.1)"/><use xlink:href="#k" transform="matrix(1,0,0,1,725,306.5) translate(0 17.1)"/><use xlink:href="#m" transform="matrix(1,0,0,1,585,338.5) translate(0 17.1)"/><use xlink:href="#n" transform="matrix(1,0,0,1,725,338.5) translate(0 17.1)"/><use xlink:href="#o" transform="matrix(1,0,0,1,585,370.5) translate(0 17.1)"/><use xlink:href="#p" transform="matrix(1,0,0,1,725,370.5) translate(0 17.1)"/><path d="M960 280h340v136H960z" fill="#fff"/><path d="M960 352h340v32H960z" fill="#e6e6e6"/><path d="M960 280h340v40H960z" fill="#ccc"/><path d="M960 280h340v136H960zM960 320h340M1020 320v96M1160 320v96" stroke="#000" stroke-width="2" fill="none"/><use xlink:href="#q" transform="matrix(1,0,0,1,970,280) translate(125.525 23.6)"/><use xlink:href="#b" transform="matrix(1,0,0,1,965,322.5) translate(13 17.1)"/><use xlink:href="#c" transform="matrix(1,0,0,1,1025,322.5) translate(0 17.1)"/><use xlink:href="#d" transform="matrix(1,0,0,1,1165,322.5) translate(0 17.1)"/><use xlink:href="#r" transform="matrix(1,0,0,1,1025,354.5) translate(0 17.1)"/><use xlink:href="#p" transform="matrix(1,0,0,1,1165,354.5) translate(0 17.1)"/><use xlink:href="#g" transform="matrix(1,0,0,1,965,386.5) translate(13.524999999999999 17.1)"/><use xlink:href="#h" transform="matrix(1,0,0,1,1025,386.5) translate(0 17.1)"/><use xlink:href="#d" transform="matrix(1,0,0,1,1165,386.5) translate(0 17.1)"/><path d="M520 520h340v104H520z" fill="#fff"/><path d="M520 592h340v32H520z" fill="#e6e6e6"/><path d="M520 520h340v40H520z" fill="#ccc"/><path d="M520 520h340v104H520zM520 560h340M580 560v64M720 560v64" stroke="#000" stroke-width="2" fill="none"/><use xlink:href="#s" transform="matrix(1,0,0,1,530,520) translate(133.025 23.6)"/><use xlink:href="#b" transform="matrix(1,0,0,1,525,562.5) translate(13 17.1)"/><use xlink:href="#c" transform="matrix(1,0,0,1,585,562.5) translate(0 17.1)"/><use xlink:href="#d" transform="matrix(1,0,0,1,725,562.5) translate(0 17.1)"/><use xlink:href="#m" transform="matrix(1,0,0,1,585,594.5) translate(0 17.1)"/><use xlink:href="#t" transform="matrix(1,0,0,1,725,594.5) translate(0 17.1)"/><path d="M1440 456h340v168h-340z" fill="#fff"/><path d="M1440 528h340v32h-340zM1440 592h340v32h-340z" fill="#e6e6e6"/><path d="M1440 456h340v40h-340z" fill="#ccc"/><path d="M1440 456h340v168h-340zM1440 496h340M1500 496v128M1640 496v128" stroke="#000" stroke-width="2" fill="none"/><use xlink:href="#u" transform="matrix(1,0,0,1,1450,456) translate(118.525 23.6)"/><use xlink:href="#b" transform="matrix(1,0,0,1,1445,498.5) translate(13 17.1)"/><use xlink:href="#c" transform="matrix(1,0,0,1,1505,498.5) translate(0 17.1)"/><use xlink:href="#d" transform="matrix(1,0,0,1,1645,498.5) translate(0 17.1)"/><use xlink:href="#g" transform="matrix(1,0,0,1,1445,530.5) translate(13.524999999999999 17.1)"/><use xlink:href="#v" transform="matrix(1,0,0,1,1505,530.5) translate(0 17.1)"/><use xlink:href="#d" transform="matrix(1,0,0,1,1645,530.5) translate(0 17.1)"/><use xlink:href="#g" transform="matrix(1,0,0,1,1445,562.5) translate(13.524999999999999 17.1)"/><use xlink:href="#w" transform="matrix(1,0,0,1,1505,562.5) translate(0 17.1)"/><use xlink:href="#d" transform="matrix(1,0,0,1,1645,562.5) translate(0 17.1)"/><use xlink:href="#x" transform="matrix(1,0,0,1,1505,594.5) translate(0 17.1)"/><use xlink:href="#y" transform="matrix(1,0,0,1,1645,594.5) translate(0 17.1)"/><path d="M1440 680h340v136h-340z" fill="#fff"/><path d="M1440 752h340v32h-340z" fill="#e6e6e6"/><path d="M1440 680h340v40h-340z" fill="#ccc"/><path d="M1440 680h340v136h-340zM1440 720h340M1500 720v96M1640 720v96" stroke="#000" stroke-width="2" fill="none"/><use xlink:href="#z" transform="matrix(1,0,0,1,1450,680) translate(130.025 23.6)"/><use xlink:href="#b" transform="matrix(1,0,0,1,1445,722.5) translate(13 17.1)"/><use xlink:href="#c" transform="matrix(1,0,0,1,1505,722.5) translate(0 17.1)"/><use xlink:href="#d" transform="matrix(1,0,0,1,1645,722.5) translate(0 17.1)"/><use xlink:href="#g" transform="matrix(1,0,0,1,1445,754.5) translate(13.524999999999999 17.1)"/><use xlink:href="#A" transform="matrix(1,0,0,1,1505,754.5) translate(0 17.1)"/><use xlink:href="#d" transform="matrix(1,0,0,1,1645,754.5) translate(0 17.1)"/><use xlink:href="#g" transform="matrix(1,0,0,1,1445,786.5) translate(13.524999999999999 17.1)"/><use xlink:href="#w" transform="matrix(1,0,0,1,1505,786.5) translate(0 17.1)"/><use xlink:href="#d" transform="matrix(1,0,0,1,1645,786.5) translate(0 17.1)"/><defs><path d="M115-194c55 1 70 41 70 98S169 2 115 4C84 4 66-9 55-30l1 105H24l-1-265h31l2 30c10-21 28-34 59-34zm-8 174c40 0 45-34 45-75s-6-73-45-74c-42 0-51 32-51 76 0 43 10 73 51 73" id="B"/><path d="M141-36C126-15 110 5 73 4 37 3 15-17 15-53c-1-64 63-63 125-63 3-35-9-54-41-54-24 1-41 7-42 31l-33-3c5-37 33-52 76-52 45 0 72 20 72 64v82c-1 20 7 32 28 27v20c-31 9-61-2-59-35zM48-53c0 20 12 33 32 33 41-3 63-29 60-74-43 2-92-5-92 41" id="C"/><path d="M179-190L93 31C79 59 56 82 12 73V49c39 6 53-20 64-50L1-190h34L92-34l54-156h33" id="D"/><path d="M100-194c62-1 85 37 85 99 1 63-27 99-86 99S16-35 15-95c0-66 28-99 85-99zM99-20c44 1 53-31 53-75 0-43-8-75-51-75s-53 32-53 75 10 74 51 75" id="E"/><path d="M84 4C-5 8 30-112 23-190h32v120c0 31 7 50 39 49 72-2 45-101 50-169h31l1 190h-30c-1-10 1-25-2-33-11 22-28 36-60 37" id="F"/><path d="M59-47c-2 24 18 29 38 22v24C64 9 27 4 27-40v-127H5v-23h24l9-43h21v43h35v23H59v120" id="G"/><path d="M135-143c-3-34-86-38-87 0 15 53 115 12 119 90S17 21 10-45l28-5c4 36 97 45 98 0-10-56-113-15-118-90-4-57 82-63 122-42 12 7 21 19 24 35" id="H"/><g id="a"><use transform="matrix(0.05,0,0,0.05,0,0)" xlink:href="#B"/><use transform="matrix(0.05,0,0,0.05,10,0)" xlink:href="#C"/><use transform="matrix(0.05,0,0,0.05,20,0)" xlink:href="#D"/><use transform="matrix(0.05,0,0,0.05,29,0)" xlink:href="#E"/><use transform="matrix(0.05,0,0,0.05,39,0)" xlink:href="#F"/><use transform="matrix(0.05,0,0,0.05,49,0)" xlink:href="#G"/><use transform="matrix(0.05,0,0,0.05,54,0)" xlink:href="#H"/></g><path d="M30-248c87 1 191-15 191 75 0 78-77 80-158 76V0H30v-248zm33 125c57 0 124 11 124-50 0-59-68-47-124-48v98" id="I"/><path d="M194 0L95-120 63-95V0H30v-248h33v124l119-124h40L117-140 236 0h-42" id="J"/><g id="b"><use transform="matrix(0.05,0,0,0.05,0,0)" xlink:href="#I"/><use transform="matrix(0.05,0,0,0.05,12,0)" xlink:href="#J"/></g><path d="M24-231v-30h32v30H24zM24 0v-190h32V0H24" id="K"/><path d="M85-194c31 0 48 13 60 33l-1-100h32l1 261h-30c-2-10 0-23-3-31C134-8 116 4 85 4 32 4 16-35 15-94c0-66 23-100 70-100zm9 24c-40 0-46 34-46 75 0 40 6 74 45 74 42 0 51-32 51-76 0-42-9-74-50-73" id="L"/><g id="c"><use transform="matrix(0.05,0,0,0.05,0,0)" xlink:href="#K"/><use transform="matrix(0.05,0,0,0.05,3.95,0)" xlink:href="#L"/></g><path d="M115-194c53 0 69 39 70 98 0 66-23 100-70 100C84 3 66-7 56-30L54 0H23l1-261h32v101c10-23 28-34 59-34zm-8 174c40 0 45-34 45-75 0-40-5-75-45-74-42 0-51 32-51 76 0 43 10 73 51 73" id="M"/><path d="M177-190C167-65 218 103 67 71c-23-6-38-20-44-43l32-5c15 47 100 32 89-28v-30C133-14 115 1 83 1 29 1 15-40 15-95c0-56 16-97 71-98 29-1 48 16 59 35 1-10 0-23 2-32h30zM94-22c36 0 50-32 50-73 0-42-14-75-50-75-39 0-46 34-46 75s6 73 46 73" id="N"/><path d="M117-194c89-4 53 116 60 194h-32v-121c0-31-8-49-39-48C34-167 62-67 57 0H25l-1-190h30c1 10-1 24 2 32 11-22 29-35 61-36" id="O"/><g id="d"><use transform="matrix(0.05,0,0,0.05,0,0)" xlink:href="#M"/><use transform="matrix(0.05,0,0,0.05,10,0)" xlink:href="#K"/><use transform="matrix(0.05,0,0,0.05,13.949999999999998,0)" xlink:href="#N"/><use transform="matrix(0.05,0,0,0.05,23.95,0)" xlink:href="#K"/><use transform="matrix(0.05,0,0,0.05,27.899999999999995,0)" xlink:href="#O"/><use transform="matrix(0.05,0,0,0.05,37.9,0)" xlink:href="#G"/></g><path d="M100-194c63 0 86 42 84 106H49c0 40 14 67 53 68 26 1 43-12 49-29l28 8c-11 28-37 45-77 45C44 4 14-33 15-96c1-61 26-98 85-98zm52 81c6-60-76-77-97-28-3 7-6 17-6 28h103" id="P"/><g id="e"><use transform="matrix(0.05,0,0,0.05,0,0)" xlink:href="#L"/><use transform="matrix(0.05,0,0,0.05,10,0)" xlink:href="#C"/><use transform="matrix(0.05,0,0,0.05,20,0)" xlink:href="#G"/><use transform="matrix(0.05,0,0,0.05,25,0)" xlink:href="#P"/></g><path d="M210-169c-67 3-38 105-44 169h-31v-121c0-29-5-50-35-48C34-165 62-65 56 0H25l-1-190h30c1 10-1 24 2 32 10-44 99-50 107 0 11-21 27-35 58-36 85-2 47 119 55 194h-31v-121c0-29-5-49-35-48" id="Q"/><g id="f"><use transform="matrix(0.05,0,0,0.05,0,0)" xlink:href="#G"/><use transform="matrix(0.05,0,0,0.05,5,0)" xlink:href="#K"/><use transform="matrix(0.05,0,0,0.05,8.95,0)" xlink:href="#Q"/><use transform="matrix(0.05,0,0,0.05,23.9,0)" xlink:href="#P"/><use transform="matrix(0.05,0,0,0.05,33.9,0)" xlink:href="#H"/><use transform="matrix(0.05,0,0,0.05,42.9,0)" xlink:href="#G"/><use transform="matrix(0.05,0,0,0.05,47.9,0)" xlink:href="#C"/><use transform="matrix(0.05,0,0,0.05,57.900000000000006,0)" xlink:href="#Q"/><use transform="matrix(0.05,0,0,0.05,72.85,0)" xlink:href="#B"/></g><path d="M63-220v92h138v28H63V0H30v-248h175v28H63" id="R"/><g id="g"><use transform="matrix(0.05,0,0,0.05,0,0)" xlink:href="#R"/><use transform="matrix(0.05,0,0,0.05,10.950000000000001,0)" xlink:href="#J"/></g><path d="M24 0v-261h32V0H24" id="S"/><path d="M114-163C36-179 61-72 57 0H25l-1-190h30c1 12-1 29 2 39 6-27 23-49 58-41v29" id="T"/><path d="M-5 72V49h209v23H-5" id="U"/><g id="h"><use transform="matrix(0.05,0,0,0.05,0,0)" xlink:href="#H"/><use transform="matrix(0.05,0,0,0.05,9,0)" xlink:href="#P"/><use transform="matrix(0.05,0,0,0.05,19,0)" xlink:href="#S"/><use transform="matrix(0.05,0,0,0.05,22.95,0)" xlink:href="#S"/><use transform="matrix(0.05,0,0,0.05,26.899999999999995,0)" xlink:href="#P"/><use transform="matrix(0.05,0,0,0.05,36.9,0)" xlink:href="#T"/><use transform="matrix(0.05,0,0,0.05,42.85,0)" xlink:href="#U"/><use transform="matrix(0.05,0,0,0.05,52.85,0)" xlink:href="#K"/><use transform="matrix(0.05,0,0,0.05,56.800000000000004,0)" xlink:href="#L"/></g><g id="i"><use transform="matrix(0.05,0,0,0.05,0,0)" xlink:href="#H"/><use transform="matrix(0.05,0,0,0.05,9,0)" xlink:href="#P"/><use transform="matrix(0.05,0,0,0.05,19,0)" xlink:href="#S"/><use transform="matrix(0.05,0,0,0.05,22.95,0)" xlink:href="#S"/><use transform="matrix(0.05,0,0,0.05,26.899999999999995,0)" xlink:href="#P"/><use transform="matrix(0.05,0,0,0.05,36.9,0)" xlink:href="#T"/><use transform="matrix(0.05,0,0,0.05,42.85,0)" xlink:href="#H"/></g><path d="M101-234c-31-9-42 10-38 44h38v23H63V0H32v-167H5v-23h27c-7-52 17-82 69-68v24" id="V"/><g id="j"><use transform="matrix(0.05,0,0,0.05,0,0)" xlink:href="#V"/><use transform="matrix(0.05,0,0,0.05,5,0)" xlink:href="#K"/><use transform="matrix(0.05,0,0,0.05,8.95,0)" xlink:href="#T"/><use transform="matrix(0.05,0,0,0.05,14.899999999999999,0)" xlink:href="#H"/><use transform="matrix(0.05,0,0,0.05,23.9,0)" xlink:href="#G"/><use transform="matrix(0.05,0,0,0.05,28.899999999999995,0)" xlink:href="#U"/><use transform="matrix(0.05,0,0,0.05,38.9,0)" xlink:href="#O"/><use transform="matrix(0.05,0,0,0.05,48.9,0)" xlink:href="#C"/><use transform="matrix(0.05,0,0,0.05,58.900000000000006,0)" xlink:href="#Q"/><use transform="matrix(0.05,0,0,0.05,73.85,0)" xlink:href="#P"/></g><path d="M108 0H70L1-190h34L89-25l56-165h34" id="W"/><path d="M96-169c-40 0-48 33-48 73s9 75 48 75c24 0 41-14 43-38l32 2c-6 37-31 61-74 61-59 0-76-41-82-99-10-93 101-131 147-64 4 7 5 14 7 22l-32 3c-4-21-16-35-41-35" id="X"/><path d="M106-169C34-169 62-67 57 0H25v-261h32l-1 103c12-21 28-36 61-36 89 0 53 116 60 194h-32v-121c2-32-8-49-39-48" id="Y"/><path d="M87 75C49 33 22-17 22-94c0-76 28-126 65-167h31c-38 41-64 92-64 168S80 34 118 75H87" id="Z"/><path d="M27 0v-27h64v-190l-56 39v-29l58-41h29v221h61V0H27" id="aa"/><path d="M54-142c48-35 137-8 131 61C196 18 31 33 14-55l32-4c7 23 22 37 52 37 35-1 51-22 54-58 4-55-73-65-99-34H22l8-134h141v27H59" id="ab"/><path d="M33-261c38 41 65 92 65 168S71 34 33 75H2C39 34 66-17 66-93S39-220 2-261h31" id="ac"/><g id="k"><use transform="matrix(0.05,0,0,0.05,0,0)" xlink:href="#W"/><use transform="matrix(0.05,0,0,0.05,9,0)" xlink:href="#C"/><use transform="matrix(0.05,0,0,0.05,19,0)" xlink:href="#T"/><use transform="matrix(0.05,0,0,0.05,24.95,0)" xlink:href="#X"/><use transform="matrix(0.05,0,0,0.05,33.95,0)" xlink:href="#Y"/><use transform="matrix(0.05,0,0,0.05,43.95,0)" xlink:href="#C"/><use transform="matrix(0.05,0,0,0.05,53.95,0)" xlink:href="#T"/><use transform="matrix(0.05,0,0,0.05,59.900000000000006,0)" xlink:href="#Z"/><use transform="matrix(0.05,0,0,0.05,65.85000000000001,0)" xlink:href="#aa"/><use transform="matrix(0.05,0,0,0.05,75.85000000000001,0)" xlink:href="#ab"/><use transform="matrix(0.05,0,0,0.05,85.85000000000001,0)" xlink:href="#ac"/></g><g id="l"><use transform="matrix(0.05,0,0,0.05,0,0)" xlink:href="#S"/><use transform="matrix(0.05,0,0,0.05,3.95,0)" xlink:href="#C"/><use transform="matrix(0.05,0,0,0.05,13.949999999999998,0)" xlink:href="#H"/><use transform="matrix(0.05,0,0,0.05,22.95,0)" xlink:href="#G"/><use transform="matrix(0.05,0,0,0.05,27.950000000000003,0)" xlink:href="#U"/><use transform="matrix(0.05,0,0,0.05,37.95,0)" xlink:href="#O"/><use transform="matrix(0.05,0,0,0.05,47.95,0)" xlink:href="#C"/><use transform="matrix(0.05,0,0,0.05,57.95,0)" xlink:href="#Q"/><use transform="matrix(0.05,0,0,0.05,72.9,0)" xlink:href="#P"/></g><g id="m"><use transform="matrix(0.05,0,0,0.05,0,0)" xlink:href="#P"/><use transform="matrix(0.05,0,0,0.05,10,0)" xlink:href="#Q"/><use transform="matrix(0.05,0,0,0.05,24.950000000000003,0)" xlink:href="#C"/><use transform="matrix(0.05,0,0,0.05,34.95,0)" xlink:href="#K"/><use transform="matrix(0.05,0,0,0.05,38.900000000000006,0)" xlink:href="#S"/></g><path d="M126-127c33 6 58 20 58 59 0 88-139 92-164 29-3-8-5-16-6-25l32-3c6 27 21 44 54 44 32 0 52-15 52-46 0-38-36-46-79-43v-28c39 1 72-4 72-42 0-27-17-43-46-43-28 0-47 15-49 41l-32-3c6-42 35-63 81-64 48-1 79 21 79 65 0 36-21 52-52 59" id="ad"/><path d="M101-251c68 0 85 55 85 127S166 4 100 4C33 4 14-52 14-124c0-73 17-127 87-127zm-1 229c47 0 54-49 54-102s-4-102-53-102c-51 0-55 48-55 102 0 53 5 102 54 102" id="ae"/><g id="n"><use transform="matrix(0.05,0,0,0.05,0,0)" xlink:href="#W"/><use transform="matrix(0.05,0,0,0.05,9,0)" xlink:href="#C"/><use transform="matrix(0.05,0,0,0.05,19,0)" xlink:href="#T"/><use transform="matrix(0.05,0,0,0.05,24.95,0)" xlink:href="#X"/><use transform="matrix(0.05,0,0,0.05,33.95,0)" xlink:href="#Y"/><use transform="matrix(0.05,0,0,0.05,43.95,0)" xlink:href="#C"/><use transform="matrix(0.05,0,0,0.05,53.95,0)" xlink:href="#T"/><use transform="matrix(0.05,0,0,0.05,59.900000000000006,0)" xlink:href="#Z"/><use transform="matrix(0.05,0,0,0.05,65.85000000000001,0)" xlink:href="#ad"/><use transform="matrix(0.05,0,0,0.05,75.85000000000001,0)" xlink:href="#ae"/><use transform="matrix(0.05,0,0,0.05,85.85000000000001,0)" xlink:href="#ac"/></g><g id="o"><use transform="matrix(0.05,0,0,0.05,0,0)" xlink:href="#M"/><use transform="matrix(0.05,0,0,0.05,10,0)" xlink:href="#C"/><use transform="matrix(0.05,0,0,0.05,20,0)" xlink:href="#S"/><use transform="matrix(0.05,0,0,0.05,23.95,0)" xlink:href="#C"/><use transform="matrix(0.05,0,0,0.05,33.95,0)" xlink:href="#O"/><use transform="matrix(0.05,0,0,0.05,43.95,0)" xlink:href="#X"/><use transform="matrix(0.05,0,0,0.05,52.95,0)" xlink:href="#P"/></g><g id="p"><use transform="matrix(0.05,0,0,0.05,0,0)" xlink:href="#O"/><use transform="matrix(0.05,0,0,0.05,10,0)" xlink:href="#F"/><use transform="matrix(0.05,0,0,0.05,20,0)" xlink:href="#Q"/><use transform="matrix(0.05,0,0,0.05,34.95,0)" xlink:href="#P"/><use transform="matrix(0.05,0,0,0.05,44.95,0)" xlink:href="#T"/><use transform="matrix(0.05,0,0,0.05,50.900000000000006,0)" xlink:href="#K"/><use transform="matrix(0.05,0,0,0.05,54.85,0)" xlink:href="#X"/></g><g id="q"><use transform="matrix(0.05,0,0,0.05,0,0)" xlink:href="#B"/><use transform="matrix(0.05,0,0,0.05,10,0)" xlink:href="#T"/><use transform="matrix(0.05,0,0,0.05,15.949999999999998,0)" xlink:href="#E"/><use transform="matrix(0.05,0,0,0.05,25.950000000000003,0)" xlink:href="#L"/><use transform="matrix(0.05,0,0,0.05,35.95,0)" xlink:href="#F"/><use transform="matrix(0.05,0,0,0.05,45.95,0)" xlink:href="#X"/><use transform="matrix(0.05,0,0,0.05,54.95,0)" xlink:href="#G"/><use transform="matrix(0.05,0,0,0.05,59.95,0)" xlink:href="#H"/></g><g id="r"><use transform="matrix(0.05,0,0,0.05,0,0)" xlink:href="#B"/><use transform="matrix(0.05,0,0,0.05,10,0)" xlink:href="#T"/><use transform="matrix(0.05,0,0,0.05,15.949999999999998,0)" xlink:href="#K"/><use transform="matrix(0.05,0,0,0.05,19.9,0)" xlink:href="#X"/><use transform="matrix(0.05,0,0,0.05,28.899999999999995,0)" xlink:href="#P"/></g><g id="s"><use transform="matrix(0.05,0,0,0.05,0,0)" xlink:href="#M"/><use transform="matrix(0.05,0,0,0.05,10,0)" xlink:href="#F"/><use transform="matrix(0.05,0,0,0.05,20,0)" xlink:href="#D"/><use transform="matrix(0.05,0,0,0.05,29,0)" xlink:href="#P"/><use transform="matrix(0.05,0,0,0.05,39,0)" xlink:href="#T"/><use transform="matrix(0.05,0,0,0.05,44.95,0)" xlink:href="#H"/></g><path d="M110-160c48 1 74 30 74 79 0 53-28 85-80 85-65 0-83-55-86-122-5-90 50-162 133-122 14 7 22 21 27 39l-31 6c-5-40-67-38-82-6-9 19-15 44-15 74 11-20 30-34 60-33zm-7 138c34 0 49-23 49-58s-16-56-50-56c-29 0-50 16-49 49 1 36 15 65 50 65" id="af"/><g id="t"><use transform="matrix(0.05,0,0,0.05,0,0)" xlink:href="#W"/><use transform="matrix(0.05,0,0,0.05,9,0)" xlink:href="#C"/><use transform="matrix(0.05,0,0,0.05,19,0)" xlink:href="#T"/><use transform="matrix(0.05,0,0,0.05,24.95,0)" xlink:href="#X"/><use transform="matrix(0.05,0,0,0.05,33.95,0)" xlink:href="#Y"/><use transform="matrix(0.05,0,0,0.05,43.95,0)" xlink:href="#C"/><use transform="matrix(0.05,0,0,0.05,53.95,0)" xlink:href="#T"/><use transform="matrix(0.05,0,0,0.05,59.900000000000006,0)" xlink:href="#Z"/><use transform="matrix(0.05,0,0,0.05,65.85000000000001,0)" xlink:href="#af"/><use transform="matrix(0.05,0,0,0.05,75.85000000000001,0)" xlink:href="#ae"/><use transform="matrix(0.05,0,0,0.05,85.85000000000001,0)" xlink:href="#ac"/></g><g id="u"><use transform="matrix(0.05,0,0,0.05,0,0)" xlink:href="#B"/><use transform="matrix(0.05,0,0,0.05,10,0)" xlink:href="#F"/><use transform="matrix(0.05,0,0,0.05,20,0)" xlink:href="#T"/><use transform="matrix(0.05,0,0,0.05,25.950000000000003,0)" xlink:href="#X"/><use transform="matrix(0.05,0,0,0.05,34.95,0)" xlink:href="#Y"/><use transform="matrix(0.05,0,0,0.05,44.95,0)" xlink:href="#C"/><use transform="matrix(0.05,0,0,0.05,54.95,0)" xlink:href="#H"/><use transform="matrix(0.05,0,0,0.05,63.95,0)" xlink:href="#P"/><use transform="matrix(0.05,0,0,0.05,73.95,0)" xlink:href="#H"/></g><g id="v"><use transform="matrix(0.05,0,0,0.05,0,0)" xlink:href="#B"/><use transform="matrix(0.05,0,0,0.05,10,0)" xlink:href="#T"/><use transform="matrix(0.05,0,0,0.05,15.949999999999998,0)" xlink:href="#E"/><use transform="matrix(0.05,0,0,0.05,25.950000000000003,0)" xlink:href="#L"/><use transform="matrix(0.05,0,0,0.05,35.95,0)" xlink:href="#F"/><use transform="matrix(0.05,0,0,0.05,45.95,0)" xlink:href="#X"/><use transform="matrix(0.05,0,0,0.05,54.95,0)" xlink:href="#G"/><use transform="matrix(0.05,0,0,0.05,59.95,0)" xlink:href="#U"/><use transform="matrix(0.05,0,0,0.05,69.95,0)" xlink:href="#K"/><use transform="matrix(0.05,0,0,0.05,73.9,0)" xlink:href="#L"/></g><g id="w"><use transform="matrix(0.05,0,0,0.05,0,0)" xlink:href="#M"/><use transform="matrix(0.05,0,0,0.05,10,0)" xlink:href="#F"/><use transform="matrix(0.05,0,0,0.05,20,0)" xlink:href="#D"/><use transform="matrix(0.05,0,0,0.05,29,0)" xlink:href="#P"/><use transform="matrix(0.05,0,0,0.05,39,0)" xlink:href="#T"/><use transform="matrix(0.05,0,0,0.05,44.95,0)" xlink:href="#U"/><use transform="matrix(0.05,0,0,0.05,54.95,0)" xlink:href="#K"/><use transform="matrix(0.05,0,0,0.05,58.900000000000006,0)" xlink:href="#L"/></g><g id="x"><use transform="matrix(0.05,0,0,0.05,0,0)" xlink:href="#L"/><use transform="matrix(0.05,0,0,0.05,10,0)" xlink:href="#K"/><use transform="matrix(0.05,0,0,0.05,13.949999999999998,0)" xlink:href="#H"/><use transform="matrix(0.05,0,0,0.05,22.95,0)" xlink:href="#X"/><use transform="matrix(0.05,0,0,0.05,31.950000000000003,0)" xlink:href="#E"/><use transform="matrix(0.05,0,0,0.05,41.95,0)" xlink:href="#F"/><use transform="matrix(0.05,0,0,0.05,51.95,0)" xlink:href="#O"/><use transform="matrix(0.05,0,0,0.05,61.95,0)" xlink:href="#G"/><use transform="matrix(0.05,0,0,0.05,66.95,0)" xlink:href="#U"/><use transform="matrix(0.05,0,0,0.05,76.95,0)" xlink:href="#X"/><use transform="matrix(0.05,0,0,0.05,85.95,0)" xlink:href="#E"/><use transform="matrix(0.05,0,0,0.05,95.95,0)" xlink:href="#L"/><use transform="matrix(0.05,0,0,0.05,105.95,0)" xlink:href="#P"/></g><g id="y"><use transform="matrix(0.05,0,0,0.05,0,0)" xlink:href="#W"/><use transform="matrix(0.05,0,0,0.05,9,0)" xlink:href="#C"/><use transform="matrix(0.05,0,0,0.05,19,0)" xlink:href="#T"/><use transform="matrix(0.05,0,0,0.05,24.95,0)" xlink:href="#X"/><use transform="matrix(0.05,0,0,0.05,33.95,0)" xlink:href="#Y"/><use transform="matrix(0.05,0,0,0.05,43.95,0)" xlink:href="#C"/><use transform="matrix(0.05,0,0,0.05,53.95,0)" xlink:href="#T"/><use transform="matrix(0.05,0,0,0.05,59.900000000000006,0)" xlink:href="#Z"/><use transform="matrix(0.05,0,0,0.05,65.85000000000001,0)" xlink:href="#aa"/><use transform="matrix(0.05,0,0,0.05,75.85000000000001,0)" xlink:href="#ae"/><use transform="matrix(0.05,0,0,0.05,85.85000000000001,0)" xlink:href="#ac"/></g><g id="z"><use transform="matrix(0.05,0,0,0.05,0,0)" xlink:href="#T"/><use transform="matrix(0.05,0,0,0.05,5.95,0)" xlink:href="#P"/><use transform="matrix(0.05,0,0,0.05,15.949999999999998,0)" xlink:href="#V"/><use transform="matrix(0.05,0,0,0.05,20.95,0)" xlink:href="#F"/><use transform="matrix(0.05,0,0,0.05,30.950000000000003,0)" xlink:href="#O"/><use transform="matrix(0.05,0,0,0.05,40.95,0)" xlink:href="#L"/><use transform="matrix(0.05,0,0,0.05,50.95,0)" xlink:href="#H"/></g><g id="A"><use transform="matrix(0.05,0,0,0.05,0,0)" xlink:href="#B"/><use transform="matrix(0.05,0,0,0.05,10,0)" xlink:href="#F"/><use transform="matrix(0.05,0,0,0.05,20,0)" xlink:href="#T"/><use transform="matrix(0.05,0,0,0.05,25.950000000000003,0)" xlink:href="#X"/><use transform="matrix(0.05,0,0,0.05,34.95,0)" xlink:href="#Y"/><use transform="matrix(0.05,0,0,0.05,44.95,0)" xlink:href="#C"/><use transform="matrix(0.05,0,0,0.05,54.95,0)" xlink:href="#H"/><use transform="matrix(0.05,0,0,0.05,63.95,0)" xlink:href="#P"/><use transform="matrix(0.05,0,0,0.05,73.95,0)" xlink:href="#U"/><use transform="matrix(0.05,0,0,0.05,83.95,0)" xlink:href="#K"/><use transform="matrix(0.05,0,0,0.05,87.9,0)" xlink:href="#L"/></g></defs></g></svg>